<svg viewBox="0 0 250 250" xmlns="http://www.w3.org/2000/svg"><g transform="matrix(0.625,0,0,0.625,0,0)"><g transform="matrix(2,0,0,2,0,0)"><path d="M54.782,156.2s-10.693,2.95-3.7,9.195c9.368,8.362,66.915,6.379,66.915,6.379s27.232.7,29.255-9.106c0,0-2.507-8.139-8.226-7.039s-15.354,3.959-15.354,3.959,7.432,6.572-8.623,4.135c-10.648-1.616-44.7-3.871-44.7-3.871S57.861,157.6,54.782,156.2Z" fill="#d6f1f1"></path><path d="M108.19,66.538c.349,3.258.7,4.008.924,5.763a1.636,1.636,0,0,1-2.728,1.5c-.308-.308-.836.088-.572.44.924,1.452,3.085,1.939,4.048.22a3.955,3.955,0,0,0,.22-2.6c-.29-1.806-.725-3.646-1.188-5.411C108.8,66.1,108.147,66.142,108.19,66.538Z" fill="#111"></path><path d="M109.554,68.122c1.265,1.243,3.871,1.056,4.487-.792.132-.4-.351-.571-.616-.352a3.824,3.824,0,0,1-1.452.968,2.869,2.869,0,0,1-2.023-.308C109.642,67.462,109.288,67.86,109.554,68.122Z" fill="#111"></path><path d="M100.007,68.826c1.175,1.471,3.7,1.98,5.059.44.22-.22,0-.748-.352-.572a3.774,3.774,0,0,1-4.223-.352C100.188,68.115,99.793,68.557,100.007,68.826Z" fill="#111"></path><path d="M109.774,64.514c1.023-1.045,2.464-.746,3.695-1.319a.829.829,0,0,0-.176-1.5,4.78,4.78,0,0,0-2.771.352,3.5,3.5,0,0,0-1.892,1.584A.727.727,0,0,0,109.774,64.514Z" fill="#111"></path><path d="M105.11,64.338a4.845,4.845,0,0,0-5.5,1.1c-.4.484-.049,1.528.7,1.232a15.5,15.5,0,0,1,2.112-.792,14.083,14.083,0,0,1,2.331-.132A.762.762,0,0,0,105.11,64.338Z" fill="#111"></path><path d="M101.987,77.361a3.55,3.55,0,0,0,3.651,1.1c.309-.131.22-.659-.088-.747-.528-.088-1.054-.049-1.583-.176a5.951,5.951,0,0,1-1.54-.748C102.033,76.565,101.731,77.046,101.987,77.361Z" fill="#111"></path><path d="M97.06,6.839A24.411,24.411,0,0,0,97.719,19.6a.39.39,0,1,0,.748-.22c-.749-4.231-1.363-8.051-.748-12.362C97.807,6.619,97.143,6.4,97.06,6.839Z" fill="#111"></path><path d="M93.848,5.255a22.306,22.306,0,0,0,.7,14.606c.222.571,1.1.306.88-.264a22.183,22.183,0,0,1-.924-14.166A.342.342,0,1,0,93.848,5.255Z" fill="#111"></path><path d="M90.592,11.458a20.645,20.645,0,0,0,2.816,11.7.455.455,0,0,0,.792-.44,25.414,25.414,0,0,1-2.86-11.262C91.34,10.974,90.636,11.018,90.592,11.458Z" fill="#111"></path><path d="M92.484,25.756C78.568,32.024,59.549,41.682,51.658,55.32c-8.242,14.245.215,30.362,11.7,39.814A56.2,56.2,0,0,0,85.4,106.177a.55.55,0,0,0,.308-1.056C71.958,101.53,59.05,92.978,52.494,80.088c-3.827-7.523-4.417-16.155-.308-23.712,7.5-13.8,26.613-23.3,40.606-30.048C93.232,26.2,92.879,25.578,92.484,25.756Z" fill="#111"></path><path d="M108.322,7.235a41.294,41.294,0,0,1,1.936,12.8.462.462,0,1,0,.924,0,30.88,30.88,0,0,0-2.2-13.066A.357.357,0,0,0,108.322,7.235Z" fill="#111"></path><path d="M112.413,8.862a39.734,39.734,0,0,1,.4,10.471c-.037.484.751.572.836.132a25.746,25.746,0,0,0-.484-10.779C113.073,8.158,112.325,8.379,112.413,8.862Z" fill="#111"></path><path d="M116.329,13.922a25.371,25.371,0,0,1-.572,7.215c-.361,1.669-1.8,4.089-1.408,5.763.315,1.362,1.984,1.973,3.036,2.639,12.841,8.129,33.766,22.752,32.379,37.923-1.262,13.8-17.8,26.764-30.708,32.028-.658.268-.349,1.369.308,1.1,12.317-5.045,25.905-14.784,30.356-27.936,6.012-17.76-14.473-32.706-30.18-42.982-2.616-1.711-2.9-1.652-3.519-3.167-.7-1.715-.227-1.16.528-4.752a28.829,28.829,0,0,0,.484-7.874A.353.353,0,0,0,116.329,13.922Z" fill="#111"></path><path d="M100.623,9.566a.481.481,0,0,0-.924.264c1.234,5.763,2.994,11.88-.572,17.158C96.094,31.477,91.3,35,87.381,38.646,79.863,45.652,72,52.949,66.427,61.714A4.644,4.644,0,0,0,62.084,60.6c-.309.082-.264.738.133.7a5.526,5.526,0,0,1,2.155.22,5.17,5.17,0,0,1,1.293.753.363.363,0,0,0-.017.215C68.523,76.6,77.985,86.577,85.973,89.2a.488.488,0,0,0,.4-.88c-5.188-2.822-9.676-5.809-13.242-10.646a42.8,42.8,0,0,1-6.722-14.926.416.416,0,0,0,.343-.164c7.1-9.59,15.394-17.734,24.152-25.781,3.738-3.433,8.535-6.951,10.471-11.79S102.085,14.386,100.623,9.566Z" fill="#111"></path><path d="M140.261,59.015a4.371,4.371,0,0,0-3.986,1.252A277.222,277.222,0,0,1,115.009,37.15c-3.426-4.271-6.8-8.494-8.095-13.946-1.261-5.326-.7-10.6-.792-16.013-.007-.44-.759-.618-.836-.133a44.126,44.126,0,0,0,.352,15.31c1.061,5.191,3.736,9.286,6.951,13.418,6.968,8.956,14.726,17.922,23.419,25.322-1.508,2.315-2.783,4.817-4.281,7.146a37.513,37.513,0,0,1-5.852,6.555c-3.311,3.2-6.467,6.555-9.766,9.723-.308.4.22.923.528.572,3.475-3.256,6.775-6.687,10.25-9.987a54.179,54.179,0,0,0,10.295-14.21.5.5,0,0,0,.039-.095,4.955,4.955,0,0,1,3.04-1.049C140.657,59.713,140.614,59.1,140.261,59.015Z" fill="#111"></path><path d="M104.978,132.089c0-.973-1.187-.975-1.187,0C103.7,132.881,104.978,132.881,104.978,132.089Z" fill="#111"></path><path d="M126.271,65a6.552,6.552,0,0,0-3.035.44c-.352.132-.572-.44-.264-.615a6.724,6.724,0,0,1,3.343-.836,5.6,5.6,0,0,1,.4-.7,4.267,4.267,0,0,0-2.683-5.983,8.539,8.539,0,0,0,.352-3.476,2.975,2.975,0,0,0-2.2-2.464c-.792-.132-1.865.142-2.244-.572a1.831,1.831,0,0,1-.132-.836,3.975,3.975,0,0,0-4.839-3.475,3.189,3.189,0,0,0-.748,2.112.36.36,0,0,1-.7.088,3.8,3.8,0,0,1,.88-3.036c-.472-2.831-3.667-4.562-7.435-2.991a4.487,4.487,0,0,0-3.827-3.608,5.393,5.393,0,0,0-4.883,2.244A5.211,5.211,0,0,0,90.2,46.741a6.5,6.5,0,0,1,2.111,3.036c.124.354-.434.569-.572.263A5.984,5.984,0,0,0,88,46.829c-5.485-.288-8.584,3.676-8.095,7.039A4.805,4.805,0,0,0,76.03,60.6c-1.759.748-3.651,1.76-4.355,3.563-.7,1.892.132,4.048,1.188,5.764.924,1.54,2.244,3.123,4,3.519a9.912,9.912,0,0,1,2.816-1.408c.306-.094.572.352.308.528-1.71,1.33-2.59,1.445-3.212,2.376a5.391,5.391,0,0,0,2.64,4.927,8.6,8.6,0,0,0,7.215.22,5.3,5.3,0,0,0,9,3.254c.16,2.023.269,4.053.288,6.117,0,.7,1.128.7,1.1,0-.186-4.587-.048-9.384-1.313-13.828.279-.372,0-1.046-.535-.866-1.5.528-3.828-.176-3.916-2.067a2.836,2.836,0,0,1,3.036-2.685.355.355,0,0,0,.176-.659,2.277,2.277,0,0,0-.586-.19,1.287,1.287,0,0,0,.19-.6,9.995,9.995,0,0,1,1.76-4.707,3.086,3.086,0,0,1,2.727-1.144A1.222,1.222,0,0,0,99.919,61.7a2.952,2.952,0,0,1,3.916-2.068.95.95,0,0,0,1.231-.616,2.731,2.731,0,0,1,3.432-1.848,1.265,1.265,0,0,0,1.54-.7,2.113,2.113,0,0,1,3.343-1.056c1.1.835,1.144,2.2,1.408,3.431,1.423,6.106,3.163,12.956.22,18.566a11.519,11.519,0,0,1-15.178,4.883c-.435-.229-.748.352-.4.66a9.051,9.051,0,0,0,6.139,1.729,40.8,40.8,0,0,0,.68,5.662.614.614,0,0,0,.572.571c.88.045,1.815.276,2.508-.395a.478.478,0,0,0-.484-.792,5.346,5.346,0,0,1-1.551.1,34.5,34.5,0,0,0-.822-5.243,13.494,13.494,0,0,0,9.565-6.67,5.632,5.632,0,0,0,5.7-5.123,3.816,3.816,0,0,0,4.531-2.067,6.776,6.776,0,0,0,.044-5.324C126.359,65.35,126.315,65.174,126.271,65ZM86.633,58.575a.312.312,0,0,1,.22-.572,3.556,3.556,0,0,0,4.883-2.111c.132-.352.713-.308.7.088C92.374,58.929,88.848,59.773,86.633,58.575Zm17.949-12.142c-1.671.22-3.519,1.188-3.255,3.167.044.352-.484.4-.572.089-.572-2.288,1.672-3.872,3.784-3.872C104.846,45.817,104.935,46.389,104.582,46.433Z" fill="#111"></path><path d="M121.96,112.952c-.044-.616-.617-.429-1.232-.484-2.864-.257-5.464-9.634-5.763-11.879a102.412,102.412,0,0,1-.836-13.462.677.677,0,0,0-1.188-.44,10.017,10.017,0,0,0-1.451,4,20.269,20.269,0,0,1-4.928,9.326,5.121,5.121,0,0,1-2.551,1.54c-2.508.571-3.733-1.236-4.752-2.9-1.267-2.074-2.558-4.088-3.827-6.16-1.455-2.373-2.216-3.255-4.928-3.255a.668.668,0,0,0-.615.88c2.375,6.511,1.19,24.46-3.388,24.548-.484.01-.929,2.934.528,3.168,6.315,1.012,12.757,2.276,19.093,1.584,5.322-.582,10.236-.826,14.914-2.816a1.344,1.344,0,0,0,.836-1.32Zm-12.582-12.539c-2.5,1.859-4.006,5.55-7.743,4.092-3.258-1.271-5.319-5.884-7.171-8.579-.214-.312.309-.617.528-.308,1.77,2.5,3.477,6.157,6.2,7.7,3.961,2.24,5.046-2.051,7.831-3.52A.355.355,0,0,1,109.378,100.413Z" fill="#d6f1f1"></path><path d="M86.677,111.632a36.736,36.736,0,0,0-.572-5.983c-.1-.571-1.01-.353-.88.264.4,1.89.611,3.832.836,5.763C86.1,111.985,86.677,112.028,86.677,111.632Z" fill="#111"></path><path d="M119.54,107.32a67.237,67.237,0,0,0,.132-7.083c0-.615-1.011-.616-.968,0,.044,2.376-.028,4.754.176,7.083A.33.33,0,1,0,119.54,107.32Z" fill="#111"></path><path d="M188.347,159.409a.4.4,0,0,0,0-.792,27.316,27.316,0,0,1-4-.616,12.878,12.878,0,0,0-.812-4.206,12.144,12.144,0,0,0,4.025.115.374.374,0,0,0,0-.748c-1.452-.044-2.905-.176-4.357-.176a14.749,14.749,0,0,0-1.559-2.668,41.258,41.258,0,0,0,4.42.072c.484,0,.485-.756,0-.792a35.435,35.435,0,0,0-4.619-.087.434.434,0,0,0-.288.175,18.059,18.059,0,0,0-2.073-2.151c1-.139,2-.3,2.977-.532.4-.088.351-.792-.089-.748a35.061,35.061,0,0,0-3.656.633,25.832,25.832,0,0,0-3.458-2.316,25.422,25.422,0,0,0,2.759-.649c.484-.132.263-.8-.22-.748a21.987,21.987,0,0,0-3.655.794c.1,0-1.988-.969-3.407-1.53a24.087,24.087,0,0,0,4.687-1.948.336.336,0,0,0-.264-.615,30.153,30.153,0,0,0-5.4,2.19c-1.976-.73-2.5-.822-2.4-.822a49.579,49.579,0,0,0,4.765-2.38.39.39,0,0,0-.308-.7,23.42,23.42,0,0,0-3.854,1.828,5.062,5.062,0,0,0-.721-5.435c-2.2-2.552-5.72-3.96-8.887-4.8-6.6-1.672-13.506-1.187-20.149-.044a122.419,122.419,0,0,0-20.916,5.465c1.117-1.493,1.032-3.543,1.251-5.333a65.238,65.238,0,0,0,.659-9.723.44.44,0,0,0-.879,0,98.508,98.508,0,0,1-.836,11.395,6.734,6.734,0,0,1-.528,2.64c-1.1,2.067-3.52,2.376-5.631,2.551a103.9,103.9,0,0,1-16.234-.175c-.044,0-2.2-.045-2.2,0-.4-.309-.484-2.376-.572-2.86-.836-4.092-1.715-8.183-2.243-12.363-.088-.308-.7-.352-.66.088.589,4.97,1.582,9.9,2.592,14.751-10.822-3.588-22.429-5.048-33.74-6.084-4.971-.484-10.426-1.232-15.178.836a10.079,10.079,0,0,0-5.726,13.063,39.308,39.308,0,0,0-4.359,1.63.394.394,0,0,0-.3-.263,35.781,35.781,0,0,1-3.476-1.408c-.308-.176-.616.352-.352.616a8.336,8.336,0,0,0,3.071,1.538c-1.118.534-2.22,1.122-3.294,1.761-1.582-.22-3.121-.616-4.7-.923a.369.369,0,0,0-.22.7,15.915,15.915,0,0,0,3.725.964,36.142,36.142,0,0,0-4.768,3.659,27.4,27.4,0,0,0-4.456-.443c-.4-.044-.531.626-.088.748a23.167,23.167,0,0,0,3.661.533,26.141,26.141,0,0,0-3.756,4.563c-1.346-.177-2.65-.478-4-.609-.44-.087-.483.572-.088.748a15.185,15.185,0,0,0,3.584.736,13.5,13.5,0,0,0-1.324,3.694c-.152,0,.225,0-4.239.8a.38.38,0,0,0,.088.748,17.107,17.107,0,0,0,4-.629,12.145,12.145,0,0,0,.32,4.584,19.908,19.908,0,0,0-4.324.357c-.352.044-.264.616.088.66a23.006,23.006,0,0,0,2.463-.044,10.981,10.981,0,0,0,2.016-.17,13.3,13.3,0,0,0,1.917,3.632,27.629,27.629,0,0,0-3.845,1.2c-.4.176-.264.792.176.66a31.975,31.975,0,0,0,4.221-1.16,15.855,15.855,0,0,0,2.093,2.064c-1.049.915-2.163,1.823-3.278,2.659-.352.265-.044.88.352.617a31.183,31.183,0,0,0,3.626-2.731,21.5,21.5,0,0,0,2.9,1.794,13.832,13.832,0,0,0-3.141,3.532c-.264.44.4.792.66.4a15.361,15.361,0,0,1,3.259-3.541c.769.366,1.555.7,2.353,1a20.852,20.852,0,0,0-1.344,3.639c-.132.44.439.7.615.308a23.422,23.422,0,0,0,1.438-3.685c.979.353,1.972.67,2.965.965a3.66,3.66,0,0,0-.487,1.4c-.176.7-.352,1.364-.484,2.068-.088.527.616.7.748.264a33.9,33.9,0,0,1,1.038-3.494q1.673.474,3.359.914c-.2.45-.325.955-.482,1.392-.234.654-.4,1.364-.572,2.024-.044.395.572.571.7.175a30.571,30.571,0,0,0,1.189-3.375q1.68.431,3.369.83c-.147.657-.267,1.311-.422,1.93-.176.747-.44,1.451-.572,2.2a.334.334,0,0,0,.616.22,10.824,10.824,0,0,0,1.193-4.157q2.3.537,4.6,1.036a46.344,46.344,0,0,0-1.219,4.529.343.343,0,0,0,.66.176c.5-1.5.959-3,1.343-4.536,0,0,1.893.405,2.832.6a13.717,13.717,0,0,0-1.007,3.541.453.453,0,1,0,.879.22,34.437,34.437,0,0,1,1-3.583q1.9.385,3.8.744A37.624,37.624,0,0,0,52.01,188.8c-.176.572.66.792.88.22a33.658,33.658,0,0,0,1.246-3.87q2.16.4,4.324.767a27.4,27.4,0,0,0-1.127,3.763.432.432,0,0,0,.836.22,24.938,24.938,0,0,0,1.066-3.852q2.094.35,4.193.669a22.125,22.125,0,0,0-1.475,4.59c-.044.44.527.749.747.309a21.973,21.973,0,0,0,1.515-4.781q1.9.284,3.8.543a22.149,22.149,0,0,0-.872,3.973c-.044.484.66.484.792.088a20.988,20.988,0,0,0,.881-3.953q1.818.243,3.635.464a45.3,45.3,0,0,0-.953,4.458c-.088.483.616.7.748.219a43.567,43.567,0,0,0,.97-4.585c.278.033,2.4.27,3.187.352a15.8,15.8,0,0,0-.593,2.561c-.088.44.527.748.748.309a8.524,8.524,0,0,0,.724-2.78q1.85.186,3.7.347a17.786,17.786,0,0,0-.906,4.192c-.044.484.7.572.836.132.375-1.374.671-2.828.962-4.247q1.528.128,3.057.239a7.5,7.5,0,0,1-.412,2.425.408.408,0,0,0,.748.307,5.179,5.179,0,0,0,.506-2.672q1.429.1,2.859.184a26.65,26.65,0,0,1-1.253,3.632.455.455,0,1,0,.836.352,18.477,18.477,0,0,0,1.267-3.935q1.63.093,3.262.165a24.178,24.178,0,0,0-.438,4.562c0,.4.7.527.748.088.186-1.556.305-3.1.515-4.615q1.94.081,3.879.133c-.035,1.221-.235,2.474-.214,3.69a.36.36,0,0,0,.7.088,15.8,15.8,0,0,0,.309-3.757q2.38.057,4.761.075c-.3,1.051-.688,2.1-.89,3.154-.088.44.528.748.748.308a15.955,15.955,0,0,0,1.042-3.458q1.63.006,3.262-.007a22.132,22.132,0,0,0-.477,3.333.4.4,0,0,0,.792.088c.229-1.133.383-2.3.508-3.429q1.248-.013,2.5-.04a37.972,37.972,0,0,0-.629,4c-.036.441.66.528.792.088a32.216,32.216,0,0,0,.723-4.1q1.968-.047,3.937-.122c-.091,1.615-.437,3.272-.437,4.886,0,.44.7.572.792.088a27.275,27.275,0,0,0,.481-5.008q2.008-.082,4.017-.195a8.137,8.137,0,0,0,.165,2.3.357.357,0,0,0,.7-.087c.019-.756.043-1.509.016-2.264q1.356-.081,2.711-.176c.126,1.8.1,3.591.265,5.387a.419.419,0,0,0,.836,0,23.536,23.536,0,0,0-.307-5.444q1.709-.124,3.415-.271a24.468,24.468,0,0,0,.235,2.592c.088.439.7.307.748-.089a11.3,11.3,0,0,0-.168-2.574q1.94-.173,3.875-.373a20.808,20.808,0,0,0,.56,5.015c.132.44.825.353.792-.088-.124-1.68-.393-3.327-.614-5.005q1.767-.19,3.545-.411a8.925,8.925,0,0,0,.545,2.865c.132.352.748.352.7-.088a18.928,18.928,0,0,0-.414-2.883q1.289-.166,2.578-.354a14.259,14.259,0,0,1,1.927,4.468c.132.572,1.012.352.88-.264a11.242,11.242,0,0,0-1.919-4.335q1.9-.288,3.789-.628a31.823,31.823,0,0,1,1.913,4c.176.4.74.09.66-.264a11.333,11.333,0,0,0-1.766-3.881q1.95-.366,3.885-.8c.672,1.429,1.35,2.854,2.149,4.2a.344.344,0,0,0,.616-.264,21.039,21.039,0,0,0-1.95-4.124q1.761-.414,3.5-.9a30.987,30.987,0,0,0,1.88,2.953.385.385,0,0,0,.66-.4,13.763,13.763,0,0,0-1.748-2.782q1.879-.543,3.724-1.18c.447,1.169.829,2.406,1.368,3.566.176.44.791.088.7-.308a13.267,13.267,0,0,0-1.371-3.5q1.521-.544,3.011-1.161a11.942,11.942,0,0,0,2.011,3.169.364.364,0,0,0,.572-.44c-.552-1.025-1.246-2.016-1.859-3.034q1.756-.754,3.46-1.62a7.388,7.388,0,0,0,1.831,3.027.4.4,0,0,0,.615-.484,19.33,19.33,0,0,1-1.662-2.95q1.715-.909,3.363-1.944a15.782,15.782,0,0,0,2.7,2.694c.352.264.66-.264.4-.528-.764-.917-1.661-1.7-2.489-2.554q1.947-1.267,3.784-2.733a7.1,7.1,0,0,0,2.444,1.768c.4.176.572-.44.264-.616a18.488,18.488,0,0,1-2.135-1.617c1.227-1.015,2.393-2.1,3.054-2.774a6.135,6.135,0,0,0,3.217,1.927.39.39,0,0,0,.22-.748,6.568,6.568,0,0,1-2.907-1.74,21.556,21.556,0,0,0,1.791-2.252,10.049,10.049,0,0,0,2.743,1.485c.4.131.616-.484.264-.661-.872-.455-1.745-.91-2.59-1.45a20.828,20.828,0,0,0,1.216-2.168c1.428.607,2.9,1.252,4.41,1.727.4.132.66-.484.308-.7a38.713,38.713,0,0,0-4.394-1.727c.234-.536.443-1.082.625-1.634a23.3,23.3,0,0,1,4.605.37.378.378,0,0,0,.176-.7,9.134,9.134,0,0,0-4.528-.5,15.66,15.66,0,0,0,.566-3.682A10.317,10.317,0,0,0,188.347,159.409ZM41.231,132.969c4.356-3.036,10.031-2.42,15.046-1.98A205.462,205.462,0,0,1,92.044,137.1a126.068,126.068,0,0,0,14.606.66c2.468-.067,5.872.176,8.314-1.025,11.206-3.473,23.245-7.509,35.152-6.938,5.367.264,21.117,2.9,15.53,11.4-3.036,4.575-8.535,7.479-13.374,9.678-10.336,4.725-22.8,6.521-24.02,7.069a14.235,14.235,0,0,0-3.426.134c-5.351-4.107-12-6.844-18.5-9.094,8.94-3.735,14.379-7.187,32.965-10.647.484-.088.265-.782-.176-.7a135.247,135.247,0,0,0-19.4,4.575c-4.958,1.682-10.338,3.576-14.9,6.259a182.923,182.923,0,0,0-38.9-8.766c-.44-.044-.442.715.044.791,18.311,2.883,42.468,7.933,57.853,18.3a3.232,3.232,0,0,0-.4.617,6.749,6.749,0,0,0-1.237,4.53c-12.915-1.825-28.345-3.1-41.481-3.826-11.126-.7-16.832-.033-30.092-5.939-4.223-1.848-8.623-3.96-11.262-7.875C36.392,141.944,36.7,136.137,41.231,132.969Zm22.481,32.159a3.332,3.332,0,0,0,1.672.748,33.39,33.39,0,0,0,25.132-4.035c29.087,2.106,32.314,3.9,33.072,3.3,4.049,1.729,8.268,2.435,12.45,3.329,4.531.968,9.5,1.319,13.594-.924a3.547,3.547,0,0,0,1.32-1.1,2.682,2.682,0,0,0-.264-2.948,7.025,7.025,0,0,0-2.508-1.847c-4.675-2.3-9.94-2.933-15.154-3.362a88,88,0,0,0,24.939-8.961c5.722,4.292,6.5,8.27,3.985,13.819a23.089,23.089,0,0,1-9.986,10.206c-9.283,5.191-20.193,5.587-30.576,5.807-22.613.484-45.577.968-67.662-4.531-5.587-1.408-12.143-2.948-15.222-8.359a9.884,9.884,0,0,1-.836-8.535c1.09-2.789,3.389-4.5,5.785-6.114,4.818,3.238,14.08,6.687,19.72,7.961A4.964,4.964,0,0,0,63.712,165.128Zm114.208,5.455c-4.883,4.928-11.658,8.8-18.081,11.307-7.611,2.947-15.75,4.268-23.845,5.191a273.32,273.32,0,0,1-102.9-7.655c-4.532-1.231-9.239-2.727-12.715-6.071-3.3-3.123-5.059-7.611-3.651-12.054a14.633,14.633,0,0,1,1.251-2.793.382.382,0,0,0,.158-.269c3.589-5.982,12.17-11.5,19.031-13.718a15.728,15.728,0,0,0,5.77,6.746c-3.536,2.262-6.592,5.134-6.721,9.638-.132,4.795,3.124,8.886,7.127,11.13,5.236,2.9,11.7,3.959,17.554,5.1,19.188,3.732,39.589,3.446,59.3,2.992,11.351-.264,23.537-.484,33.524-6.731,4.531-2.816,8.49-7.083,9.942-12.362a9.225,9.225,0,0,0-.176-6.6,15.517,15.517,0,0,0-4.727-5.578,24.773,24.773,0,0,0,7.716-6.851c6.049,1.951,12.968,5.154,15.8,11.2C185.047,159.145,182.276,166.228,177.92,170.583Z" fill="#111"></path></g></g></svg>